<svg width="1000" height="1000" viewBox="0 0 1000 1000" fill="none" xmlns="http://www.w3.org/2000/svg">
<path d="M110.588 218.498C427.822 148.8 763.588 189.402 889.559 218.53C896.24 220.075 900.694 226.353 899.911 233.124C899.128 239.895 893.359 245.007 886.499 245.007C761.241 245.007 635.864 256.19 523.812 271.671C658.673 275.534 771.375 299.483 830.428 319.242C836.696 321.339 840.512 327.639 839.442 334.123C838.373 340.607 832.732 345.367 826.119 345.367C716.531 345.367 604.04 356.348 503.882 371.78C620.935 379.408 718.716 410.124 766.692 431.696C772.485 434.301 775.663 440.569 774.322 446.744C772.981 452.92 767.484 457.329 761.125 457.329C658.423 457.329 548.38 467.687 454.132 481.96C436.644 484.608 419.74 487.386 403.561 490.249C428.637 491.329 452.173 493.227 471.044 495.478C481.828 496.765 491.263 498.188 498.667 499.679C502.36 500.422 505.729 501.218 508.595 502.077C511.158 502.845 514.419 503.973 517.148 505.738C522.157 508.977 524.426 515.103 522.726 520.795C521.025 526.488 515.76 530.393 509.783 530.393C499.341 530.393 480.972 533.814 457.881 539.933C435.217 545.939 409.254 554.196 384.249 563.12C380.905 564.314 377.582 565.518 374.291 566.729C379.053 566.856 383.799 567.059 388.494 567.328C411.404 568.643 433.57 571.555 451.107 575.129C459.853 576.912 467.696 578.908 474.012 581.044C477.165 582.11 480.152 583.283 482.775 584.58C485.208 585.784 488.197 587.512 490.646 589.99C494.455 593.845 495.564 599.595 493.46 604.577C491.356 609.559 486.449 612.8 481.011 612.8C473.524 612.8 460.221 615.946 442.922 621.987C426.135 627.849 407.103 635.88 388.875 644.43C384.846 646.319 380.87 648.23 376.978 650.14C381.842 650.189 386.66 650.357 391.367 650.622C406.662 651.485 421.122 653.396 432.621 655.764C438.353 656.944 443.568 658.282 447.883 659.741C451.608 661.001 456.562 662.946 460.111 666.113C464.271 669.826 465.697 675.703 463.696 680.891C461.695 686.079 456.681 689.505 451.089 689.505C446.191 689.505 437.486 691.533 425.984 695.979C414.893 700.265 402.502 706.281 390.75 713.03C384.72 716.493 378.955 720.094 373.693 723.685C379.396 723.931 385.022 724.496 390.338 725.26C400.217 726.68 409.444 728.846 416.593 731.192C420.125 732.351 423.497 733.667 426.299 735.124C427.683 735.844 429.268 736.772 430.752 737.945C431.945 738.887 434.544 741.107 436.013 744.777C437.667 748.908 437.153 753.585 434.641 757.264C432.128 760.943 427.944 763.146 423.469 763.146C424.004 763.146 423.359 763.082 421.071 763.905C419.036 764.638 416.422 765.809 413.356 767.431C407.234 770.673 400.07 775.314 393.285 780.631C386.454 785.984 380.455 791.672 376.354 796.89C374.311 799.489 372.951 801.704 372.156 803.465C371.342 805.267 371.359 806.055 371.358 806.032C371.666 813.433 365.877 819.682 358.427 819.988C350.978 820.294 344.689 814.542 344.381 807.141C343.95 796.796 349.627 787.308 355.073 780.38C360.933 772.923 368.686 765.741 376.564 759.568C380.012 756.865 383.57 754.289 387.122 751.907C386.906 751.875 386.69 751.841 386.473 751.81C377.949 750.585 368.989 750.034 360.865 750.596C352.564 751.171 346.172 752.841 341.992 755.241C337.302 757.934 331.447 757.582 327.119 754.346C322.791 751.111 320.828 745.618 322.134 740.396C323.536 734.786 326.825 729.802 330.148 725.768C333.622 721.55 337.98 717.364 342.755 713.345C352.318 705.295 364.52 697.109 377.238 689.805C384.525 685.62 392.102 681.656 399.604 678.12C396.421 677.835 393.156 677.592 389.837 677.405C375.721 676.609 360.967 676.798 347.579 678.476C334 680.178 322.815 683.296 315.139 687.705C309.773 690.786 302.986 689.841 298.678 685.416C294.37 680.99 293.648 674.219 296.927 668.994C298.525 666.448 300.689 664.341 302.401 662.826C304.287 661.156 306.506 659.444 308.895 657.738C313.685 654.319 319.8 650.469 326.733 646.423C340.637 638.308 358.551 628.987 377.348 620.171C394.408 612.17 412.397 604.488 428.968 598.461C416.178 596.515 401.76 594.96 386.936 594.11C365.157 592.86 342.968 593.157 324.055 595.787C304.553 598.499 290.893 603.39 283.907 609.473C278.697 614.011 270.876 613.894 265.806 609.202C260.737 604.511 260.064 596.769 264.249 591.284C267.988 586.383 274.53 582.023 280.691 578.41C287.456 574.442 296 570.134 305.648 565.693C324.985 556.793 349.591 546.984 375.121 537.873C394.546 530.941 414.642 524.363 433.515 518.864C420.383 517.893 406.227 517.121 391.669 516.644C363.181 515.712 333.405 515.92 306.947 517.926C281.182 519.88 259.722 523.467 245.691 528.757C245.098 528.986 244.514 529.215 243.939 529.442C237.03 532.174 229.198 528.84 226.422 521.986C223.647 515.132 226.972 507.339 233.859 504.555C234.532 504.283 235.216 504.016 235.91 503.753C277.574 487.685 356.604 469.594 450.064 455.441C523.717 444.287 607.031 435.476 689.267 432.051C597.423 404.456 451.548 380.049 303.065 411.946C261.224 422.581 227.36 433.041 204.404 442.072C197.495 444.79 189.674 441.45 186.906 434.598C184.137 427.746 187.463 419.959 194.347 417.176C228.419 403.405 262.895 393.133 297.203 385.752C406.165 358.11 566.311 329.761 729.495 321.165C613.493 298.279 436.625 283.392 256.672 320.465C217.969 329.434 186.024 337.854 162.639 344.804C155.537 346.915 148.05 342.942 145.868 335.903C143.685 328.864 147.624 321.394 154.691 319.168C186.668 309.096 218.845 300.871 250.914 294.255C370.964 266.456 554.435 233.63 749.751 222.281C589.793 202.696 347.811 193.853 116.418 244.691C109.138 246.29 101.931 241.723 100.321 234.49C98.7115 227.257 103.308 220.097 110.588 218.498Z" fill="black"/>
</svg>
